<?xml version="1.0" standalone="no"?>
<!DOCTYPE svg PUBLIC "-//W3C//DTD SVG 20010904//EN"
 "http://www.w3.org/TR/2001/REC-SVG-20010904/DTD/svg10.dtd">
<svg version="1.0" xmlns="http://www.w3.org/2000/svg"
 width="44" height="auto" viewBox="0 0 996.000000 727.000000"
 preserveAspectRatio="xMidYMid meet">

<g transform="translate(0.000000,727.000000) scale(0.100000,-0.100000)"
fill="#5F5F5F" stroke="none">
<path d="M2685 5135 l-2680 -2131 0 -514 0 -513 3484 -984 3484 -983 1183 407
1184 406 -42 36 c-38 33 -3242 2916 -3467 3120 l-95 86 87 -165 c47 -91 362
-689 700 -1330 338 -641 613 -1167 611 -1168 -4 -5 -5467 1400 -5477 1408 -4
4 1723 891 3838 1971 2114 1080 3845 1966 3845 1969 0 4 -936 126 -3690 479
l-285 37 -2680 -2131z"/>
</g>
</svg>
