<svg width="45" height="45" viewBox="0 0 45 45" fill="none" xmlns="http://www.w3.org/2000/svg">
<path fill-rule="evenodd" clip-rule="evenodd" d="M44.0361 0.151855H0.0361328V44.1519H44.0361V0.151855ZM32.8374 10.205C32.8953 9.10562 32.9821 7.97734 33.0978 6.82013C31.767 6.87799 30.2482 6.92138 28.5413 6.95031H24.0281H20.4263C18.9509 6.95031 17.3597 6.93584 15.6528 6.90692C13.9749 6.87799 12.3982 6.84906 10.9227 6.82013V7.68803C11.8774 7.71696 12.6007 7.83268 13.0925 8.0352C13.6132 8.20878 13.9459 8.55594 14.0906 9.07669C14.2642 9.5685 14.351 10.3496 14.351 11.42V32.9442C14.351 33.9857 14.2642 34.7668 14.0906 35.2875C13.9459 35.8083 13.6277 36.1554 13.1359 36.329C12.6441 36.5026 11.9064 36.6183 10.9227 36.6762V37.5441C11.646 37.4862 12.5284 37.4573 13.5698 37.4573C14.6403 37.4284 15.7541 37.4139 16.9113 37.4139C18.2421 37.4139 19.5295 37.4284 20.7735 37.4573C22.0175 37.4573 23.0301 37.4862 23.8112 37.5441V36.6328C22.5672 36.6039 21.6269 36.5026 20.9905 36.329C20.354 36.1554 19.92 35.8083 19.6886 35.2875C19.4572 34.7379 19.3414 33.9278 19.3414 32.8574V22.8764H21.9886C23.2036 22.8764 24.1149 23.1513 24.7225 23.701C25.33 24.2506 25.7495 24.9739 25.9809 25.8707C26.2124 26.7386 26.386 27.6499 26.5017 28.6046H27.4998C27.3841 26.9556 27.3117 25.6971 27.2828 24.8292C27.2539 23.9613 27.2394 23.1657 27.2394 22.4425C27.2394 21.7192 27.2249 20.9236 27.196 20.0557C27.196 19.1878 27.2539 17.9294 27.3696 16.2803H26.3715C26.2558 17.0036 26.0822 17.8136 25.8508 18.7105C25.6482 19.6073 25.2577 20.3884 24.6791 21.0538C24.1005 21.6903 23.2036 22.0085 21.9886 22.0085H19.3414V11.2465C19.3414 10.2339 19.4282 9.49618 19.6018 9.03329C19.7754 8.54148 20.0936 8.22324 20.5565 8.07859C21.0483 7.90501 21.7571 7.81822 22.6829 7.81822H24.9828C26.6608 7.81822 27.9482 8.09306 28.845 8.64273C29.7419 9.16348 30.4073 10.0314 30.8412 11.2465C31.3041 12.4326 31.6657 14.0816 31.9261 16.1935H32.9242C32.8953 15.7596 32.8664 15.2388 32.8374 14.6313C32.8085 14.0238 32.794 13.3873 32.794 12.7219C32.794 12.1433 32.8085 11.3043 32.8374 10.205Z" fill="#5F5F5F"/>
</svg>
