<svg width="45" height="33" viewBox="0 0 45 33" fill="none" xmlns="http://www.w3.org/2000/svg">
<path d="M19.4121 21.5344C19.4121 24.808 19.4121 27.7204 19.4121 30.6329C19.4121 32.1734 18.6277 32.8955 17.0591 32.8473C15.6866 32.7992 14.9513 32.053 14.9513 30.6088C14.9513 25.8911 14.9513 21.1493 14.9268 16.4316C14.9268 15.4206 15.1719 14.5541 16.1768 14.1931C17.1817 13.832 18.1621 13.9764 18.9709 14.7948C22.2062 17.9721 25.466 21.1252 28.6768 24.3266C28.9954 24.6395 29.216 25.0246 29.4856 25.3856C30.0248 24.9283 29.8287 24.5432 29.8287 24.2062C29.8532 21.5585 29.8287 18.9108 29.8532 16.2631C29.8532 14.7708 30.6375 14.0246 32.0836 14.0246C33.5542 14.0246 34.2895 14.7467 34.314 16.2631C34.3385 21.029 34.314 25.7948 34.3385 30.5607C34.3385 31.6679 33.9219 32.39 32.8679 32.7992C31.863 33.2084 31.0542 32.8955 30.3189 32.1734C27.0836 28.9961 23.8483 25.8189 20.613 22.6657C20.3189 22.4009 20.0003 22.088 19.4121 21.5344Z" fill="#8B8B8B"/>
<path d="M19.4367 12.1231C17.8925 11.3287 16.4955 11.3287 14.9759 12.099C14.9759 10.7511 14.9759 9.49943 14.9759 7.93488C13.8239 9.18652 12.8925 10.1975 11.9612 11.2084C10.5886 12.7248 9.53469 12.7248 8.0641 11.3287C6.91214 10.2215 5.68665 9.16245 4.51018 8.10336C4.51018 10.8955 4.53469 13.808 4.51018 16.6964C4.48567 18.2368 3.67685 18.9589 2.13273 18.8867C0.931751 18.8386 0.0493982 18.0684 0.0493982 16.8408C0.000378629 11.9305 0.000378629 6.99614 0.0248884 2.06179C0.0248884 1.19527 0.466065 0.449099 1.2994 0.184329C2.20626 -0.104512 3.16214 -0.104511 3.92195 0.665729C5.71116 2.49505 7.50038 4.27623 9.24057 6.15369C9.8043 6.77951 10.0739 6.68323 10.5886 6.08148C12.0837 4.34844 13.7014 2.68761 15.1965 0.954569C16.0298 -0.0323014 17.0837 -0.176722 18.1621 0.208399C19.167 0.545379 19.4366 1.43597 19.4121 2.44691C19.4121 5.60008 19.4367 8.75326 19.4367 12.1231Z" fill="#5F5F5F"/>
<path d="M40.417 11.2083C39.5347 11.1121 38.9955 10.6307 38.9465 9.69193C38.8974 8.82541 39.7063 8.10331 40.5886 8.17552C41.5445 8.24773 42.0837 8.84948 42.0347 9.74007C42.0102 10.6307 41.4465 11.1843 40.417 11.2083Z" fill="#5F5F5F"/>
<path d="M37.5496 6.08154C38.4074 6.12968 38.9466 6.61108 38.9221 7.50167C38.9221 8.34412 38.3829 8.82553 37.5251 8.8496C36.6427 8.87367 36.128 8.34412 36.079 7.54981C36.0545 6.70736 36.5447 6.15375 37.5496 6.08154Z" fill="#5F5F5F"/>
<path d="M42.8433 14.1209C41.7159 14.1209 41.2012 13.5432 41.2012 12.7008C41.2257 11.9306 41.6914 11.3529 42.5982 11.3769C43.5541 11.3769 44.0688 11.9065 44.0688 12.773C44.0688 13.5914 43.5051 14.0487 42.8433 14.1209Z" fill="#5F5F5F"/>
<path d="M35.049 6.12959C34.9754 6.99611 34.5097 7.47751 33.7254 7.47751C32.9901 7.47751 32.4999 7.02018 32.4999 6.24994C32.4754 5.4797 32.9411 5.02237 33.6764 4.97423C34.4362 4.92609 34.8774 5.45563 35.049 6.12959Z" fill="#5F5F5F"/>
<path d="M43.7013 17.5388C42.917 17.5147 42.4513 17.0333 42.4268 16.3353C42.4268 15.565 42.917 15.0596 43.7258 15.0596C44.4856 15.0596 44.9758 15.565 44.9758 16.2631C45.0003 17.0333 44.5346 17.5147 43.7013 17.5388Z" fill="#5F5F5F"/>
<path d="M44.6077 20.379C44.5342 20.9326 44.1666 21.3178 43.5048 21.2937C42.8185 21.2696 42.5244 20.8123 42.5244 20.1865C42.5489 19.5606 42.9656 19.2477 43.5538 19.2718C44.1911 19.2718 44.6077 19.6088 44.6077 20.379Z" fill="#5F5F5F"/>
<path d="M30.1477 5.16687C30.7605 5.28722 31.1771 5.57606 31.1526 6.27409C31.1281 6.97212 30.6869 7.28503 30.0497 7.26096C29.486 7.23689 29.0693 6.89991 29.0938 6.25002C29.0938 5.57606 29.486 5.23908 30.1477 5.16687Z" fill="#5F5F5F"/>
<path d="M27.4509 7.28499C27.4019 7.8386 27.0832 8.22372 26.544 8.24779C26.0048 8.29593 25.6372 7.93488 25.5881 7.38127C25.5636 6.82766 25.9068 6.46661 26.446 6.44254C27.0097 6.41847 27.3038 6.77952 27.4509 7.28499Z" fill="#5F5F5F"/>
<path d="M37.7453 12.3156C37.7208 12.9174 37.4267 13.3025 36.7894 13.3506C36.1767 13.3747 35.7845 13.0377 35.76 12.436C35.7355 11.8342 36.0786 11.4732 36.6914 11.425C37.3286 11.401 37.6473 11.7379 37.7453 12.3156Z" fill="#8B8B8B"/>
<path d="M38.4561 15.4207C37.9169 15.3725 37.5493 15.0837 37.5248 14.5541C37.5002 14.0005 37.8189 13.6395 38.3826 13.5913C39.0199 13.5432 39.3875 13.9283 39.412 14.506C39.412 15.0837 38.9463 15.3003 38.4561 15.4207Z" fill="#8B8B8B"/>
<path d="M34.4362 10.1252C34.9755 10.1975 35.3186 10.4622 35.3186 11.0399C35.3186 11.6176 35 11.9064 34.4362 11.9064C33.848 11.9064 33.5539 11.5935 33.5539 11.0158C33.5294 10.4382 33.897 10.1975 34.4362 10.1252Z" fill="#8B8B8B"/>
<path d="M42.231 23.0027C42.7457 23.1471 43.1624 23.3637 43.1379 23.9655C43.1134 24.5191 42.7457 24.7598 42.2555 24.7598C41.7898 24.7598 41.3977 24.5432 41.3732 23.9655C41.3487 23.3637 41.7408 23.1712 42.231 23.0027Z" fill="#5F5F5F"/>
<path d="M31.6183 9.74011C32.133 9.83639 32.3781 10.1493 32.3291 10.6548C32.28 11.1121 31.9859 11.4009 31.5202 11.3769C31.03 11.3528 30.6624 11.0399 30.7114 10.5104C30.7604 10.029 31.1036 9.76418 31.6183 9.74011Z" fill="#8B8B8B"/>
<path d="M38.4561 17.0574C38.5051 16.6001 38.7502 16.2872 39.2159 16.2631C39.7306 16.2391 40.0737 16.552 40.1227 17.0334C40.1717 17.5388 39.8041 17.8758 39.3139 17.8758C38.7992 17.8758 38.5051 17.5388 38.4561 17.0574Z" fill="#8B8B8B"/>
<path d="M28.9713 11.6657C28.5302 11.6416 28.3096 11.3769 28.3096 10.9917C28.3096 10.6066 28.5792 10.3178 28.9958 10.3419C29.388 10.3659 29.6576 10.5826 29.6576 11.0158C29.6331 11.4491 29.388 11.6416 28.9713 11.6657Z" fill="#8B8B8B"/>
<path d="M39.7793 19.8255C39.7303 20.2106 39.5097 20.4994 39.1175 20.4994C38.7009 20.5235 38.4558 20.2587 38.4558 19.8255C38.4313 19.4163 38.6764 19.1274 39.093 19.1274C39.4852 19.1515 39.7058 19.4404 39.7793 19.8255Z" fill="#8B8B8B"/>
<path d="M24.0203 9.37912C23.9223 9.69203 23.7997 9.9568 23.4566 9.9568C23.0644 9.98087 22.8438 9.76424 22.8193 9.40319C22.8193 9.09028 23.0644 8.87365 23.3586 8.84958C23.7262 8.82551 23.8733 9.13842 24.0203 9.37912Z" fill="#5F5F5F"/>
<path d="M40.4905 26.5169C40.466 27.0465 40.417 27.2872 40.0249 27.3113C39.6327 27.3353 39.4121 27.1668 39.4121 26.7817C39.4121 26.4447 39.6082 26.2762 39.9268 26.2762C40.2454 26.2762 40.4905 26.3485 40.4905 26.5169Z" fill="#5F5F5F"/>
</svg>
